<svg xmlns="http://www.w3.org/2000/svg" version="1.1" xmlns:xlink="http://www.w3.org/1999/xlink" xmlns:svgjs="http://svgjs.dev/svgjs" width="1000" height="540" viewBox="0 0 1000 540"><g transform="matrix(1,0,0,1,0.919540229885115,-0.7640425531913593)"><svg viewBox="0 0 261 141" data-background-color="#ffffff" preserveAspectRatio="xMidYMid meet" height="540" width="1000" xmlns="http://www.w3.org/2000/svg" xmlns:xlink="http://www.w3.org/1999/xlink"><g id="tight-bounds" transform="matrix(1,0,0,1,-0.2400000000000091,0.19949999999997203)"><svg viewBox="0 0 261.47954000000004 140.60052000000002" height="140.60052000000002" width="261.47954000000004"><g><svg viewBox="0 0 261.47954000000004 140.60052000000002" height="140.60052000000002" width="261.47954000000004"><g><svg viewBox="0 0 261.47954000000004 140.60052000000002" height="140.60052000000002" width="261.47954000000004"><g><path d="M0 140.601v-140.601h261.48v140.601z" fill="#010c80" stroke="transparent" stroke-width="0" rx="0%" data-fill-palette-color="tertiary"></path><path d="M3.283 137.317v-134.034h254.913v134.034z" fill="#ffffff" stroke="transparent" stroke-width="0" rx="0%" data-fill-palette-color="quaternary"></path><path d="M9.85 130.751v-120.901h241.78v120.901z" fill="#010c80" stroke="transparent" stroke-width="0" data-fill-palette-color="tertiary"></path></g><g transform="matrix(1,0,0,1,19.699740000000013,19.69974)"><svg viewBox="0 0 222.08006000000003 101.20104000000002" height="101.20104000000002" width="222.08006000000003"><g><svg viewBox="0 0 222.08006000000003 101.20104000000002" height="101.20104000000002" width="222.08006000000003"><g transform="matrix(1,0,0,1,0,0)"><svg width="222.08006000000003" viewBox="0.6500000357627869 -35.5 78.98999786376953 36" height="101.20104000000002" data-palette-color="#ffffff"><path d="M6 0.45L6 0.45Q3.85 0.45 2.7 0 1.55-0.45 1.1-1.15 0.65-1.85 0.65-2.65L0.65-2.65Q0.65-3.55 0.88-4.15 1.1-4.75 1.3-5.2L1.3-5.2Q2-4.6 3.1-4.1 4.2-3.6 5.35-3.6L5.35-3.6Q6.75-3.6 7.38-4.2 8-4.8 8.2-6.03 8.4-7.25 8.4-9.15L8.4-9.15 8.4-32.95Q8.4-34 8.6-34.43 8.8-34.85 9.78-34.93 10.75-35 13.05-35L13.05-35 13.05-8.2Q13.05-6.25 12.73-4.65 12.4-3.05 11.58-1.93 10.75-0.8 9.4-0.18 8.05 0.45 6 0.45ZM30.4 0L18.65 0 18.65-34.1Q18.65-34.1 18.77-34.55 18.9-35 19.5-35L19.5-35 31.5-35Q31.5-33.15 31.47-32.3 31.45-31.45 31.27-31.18 31.1-30.9 30.65-30.9L30.65-30.9 23.2-30.9 23.2-4.1 31.25-4.1Q31.25-2.2 31.2-1.33 31.15-0.45 31-0.23 30.85 0 30.4 0L30.4 0ZM29.4-16.9L19.15-16.9 19.15-21.1 30.25-21.1Q30.25-18.5 30.15-17.7 30.05-16.9 29.4-16.9L29.4-16.9ZM38.05 0L34.3 0 34.3-34.1Q34.3-34.1 34.42-34.55 34.55-35 35.15-35L35.15-35 47.15-35Q47.15-33.15 47.12-32.33 47.09-31.5 46.92-31.3 46.75-31.1 46.3-31.1L46.3-31.1 38.84-31.1 38.84-0.9Q38.84-0.9 38.77-0.45 38.7 0 38.05 0L38.05 0ZM45.05-16.95L34.8-16.95 34.8-21.1 45.9-21.1Q45.9-18.55 45.8-17.75 45.7-16.95 45.05-16.95L45.05-16.95ZM53.39 0L49.64 0 49.64-34.1Q49.64-34.1 49.77-34.55 49.89-35 50.49-35L50.49-35 62.49-35Q62.49-33.15 62.47-32.33 62.44-31.5 62.27-31.3 62.09-31.1 61.64-31.1L61.64-31.1 54.19-31.1 54.19-0.9Q54.19-0.9 54.12-0.45 54.04 0 53.39 0L53.39 0ZM60.39-16.95L50.14-16.95 50.14-21.1 61.24-21.1Q61.24-18.55 61.14-17.75 61.04-16.95 60.39-16.95L60.39-16.95ZM70.64 0.5L70.64 0.5Q67.29 0.5 65.69-0.5 64.09-1.5 64.09-2.6L64.09-2.6Q64.09-3.3 64.37-4.23 64.64-5.15 65.19-5.9L65.19-5.9Q65.99-5.2 67.27-4.7 68.54-4.2 70.19-4.2L70.19-4.2Q72.64-4.2 73.67-5.48 74.69-6.75 74.69-8.85L74.69-8.85Q74.69-10.45 74.12-11.8 73.54-13.15 71.99-15L71.99-15 67.14-20.9Q65.44-23.05 64.77-24.75 64.09-26.45 64.09-28.15L64.09-28.15Q64.09-31.4 66.32-33.45 68.54-35.5 72.84-35.5L72.84-35.5Q76.44-35.5 77.94-34.77 79.44-34.05 79.44-32.9L79.44-32.9Q79.44-32.35 79.19-31.65 78.94-30.95 78.34-30.3L78.34-30.3Q77.89-30.65 76.59-31.05 75.29-31.45 73.64-31.45L73.64-31.45Q71.54-31.45 70.29-30.63 69.04-29.8 69.04-28.3L69.04-28.3Q69.04-27 69.59-25.93 70.14-24.85 71.19-23.5L71.19-23.5 76.39-17.35Q78.29-15.05 78.97-13.18 79.64-11.3 79.64-9.05L79.64-9.05Q79.64-6.5 78.82-4.33 77.99-2.15 76.07-0.83 74.14 0.5 70.64 0.5Z" opacity="1" transform="matrix(1,0,0,1,0,0)" fill="#ffffff" class="undefined-text-0" data-fill-palette-color="quaternary" id="text-0"></path></svg></g></svg></g></svg></g></svg></g><g></g></svg></g><defs></defs></svg><rect width="261.47954000000004" height="140.60052000000002" fill="none" stroke="none" visibility="hidden"></rect></g></svg></g></svg>