<svg xmlns="http://www.w3.org/2000/svg" version="1.1" xmlns:xlink="http://www.w3.org/1999/xlink" xmlns:svgjs="http://svgjs.dev/svgjs" width="1000" height="707" viewBox="0 0 1000 707"><g transform="matrix(1,0,0,1,-0.6060606060606233,0)"><svg viewBox="0 0 396 280" data-background-color="#89939e" preserveAspectRatio="xMidYMid meet" height="707" width="1000" xmlns="http://www.w3.org/2000/svg" xmlns:xlink="http://www.w3.org/1999/xlink"><g id="tight-bounds" transform="matrix(1,0,0,1,0.2400000000000091,0)"><svg viewBox="0 0 395.52 280" height="280" width="395.52"><g><svg viewBox="0 0 395.52 280" height="280" width="395.52"><g><svg viewBox="0 0 395.52 280" height="280" width="395.52"><g><svg viewBox="0 0 395.52 280" height="280" width="395.52"><g><svg viewBox="0 0 395.52 280" height="280" width="395.52"><g transform="matrix(1,0,0,1,95.65203525306555,57.50420886156945)"><svg viewBox="0 0 204.21592949386888 164.9915822768611" height="164.9915822768611" width="204.21592949386888"><g><circle r="82" cx="102.10796474693444" cy="82.49579113843055" fill="#000000" data-fill-palette-color="accent"></circle></g></svg></g><path d="M77.392 101.152V101.152L78.551 102.072 81.667 93.675 80.189 93.615C76.769 93.467 73.939 93.332 71.701 93.21 69.465 93.083 68.076 92.993 67.535 92.941V92.941L66.723 92.863C67.832 93.601 71.389 96.364 77.392 101.152ZM81.496 104.399L87.124 108.87 85.552 113.106 62.729 94.338 64.676 89.093 94.171 89.879 92.586 94.152 85.417 93.832ZM88.481 48.772L102.518 58.772C105.464 60.87 107.158 63.232 107.598 65.856 108.038 68.471 107.295 71.13 105.37 73.833V73.833C103.479 76.486 101.241 78.047 98.654 78.515 96.072 78.977 93.361 78.197 90.524 76.176V76.176L76.219 65.985 78.695 62.508 92.968 72.676C94.907 74.057 96.652 74.598 98.204 74.3 99.759 73.995 101.081 73.08 102.169 71.552V71.552C104.623 68.108 103.935 65.022 100.106 62.295V62.295L86.004 52.249ZM114.546 25.457L116.798 28.215 111.112 32.858 126.523 51.731 123.224 54.424 107.813 35.551 102.158 40.169 99.906 37.411ZM148.799 11.567C151.975 12.971 154.478 15.657 156.309 19.623 158.138 23.583 158.555 27.239 157.561 30.591 156.565 33.936 154.286 36.432 150.724 38.076V38.076C147.186 39.71 143.809 39.826 140.592 38.426 137.372 37.02 134.848 34.337 133.019 30.377V30.377C131.199 26.435 130.793 22.788 131.802 19.437 132.808 16.079 135.08 13.584 138.617 11.951V11.951C142.227 10.284 145.621 10.156 148.799 11.567ZM135.905 20.662C135.348 22.977 135.742 25.59 137.085 28.499 138.426 31.403 140.179 33.391 142.344 34.464 144.512 35.528 146.75 35.528 149.056 34.463V34.463C151.44 33.362 152.909 31.666 153.462 29.374 154.016 27.083 153.609 24.458 152.243 21.5V21.5C150.886 18.56 149.15 16.561 147.035 15.501 144.914 14.445 142.664 14.465 140.285 15.564V15.564C137.925 16.654 136.465 18.353 135.905 20.662ZM180.243 29.124V29.124L171.552 30.421 167.429 2.801 176.041 1.515C180.138 0.904 183.688 1.671 186.691 3.818 189.688 5.973 191.481 9.016 192.068 12.949V12.949C192.679 17.046 191.946 20.604 189.869 23.623 187.799 26.642 184.59 28.475 180.243 29.124ZM176.491 5.139V5.139L172.269 5.769 175.322 26.218 179.672 25.569C182.815 25.1 185.059 23.756 186.402 21.539 187.746 19.328 188.188 16.681 187.727 13.597V13.597C187.303 10.756 186.062 8.524 184.005 6.902 181.949 5.286 179.444 4.698 176.491 5.139ZM220.296 25.926L219.921 29.467 203.893 27.772 206.831 0 222.661 1.675 222.286 5.215 210.701 3.99 209.795 12.56 220.06 13.645 219.685 17.196 209.419 16.11 208.512 24.68ZM255.056 11.852L253.845 15.201 246.942 12.705 238.658 35.62 234.653 34.172 242.936 11.257 236.07 8.776 237.281 5.427ZM265.451 36.45V36.45L264.282 37.356 271.697 42.381 272.106 40.959C273.064 37.673 273.868 34.957 274.519 32.812 275.175 30.67 275.593 29.343 275.772 28.829V28.829L276.041 28.06C275.06 28.961 271.53 31.758 265.451 36.45ZM261.321 39.663L255.639 44.065 251.899 41.531 275.558 23.829 280.19 26.968 272.408 55.43 268.635 52.873 270.651 45.986ZM302.497 45.996L282.611 65.604 279.642 62.592 299.528 42.985ZM301.747 86.1L298.603 88.181 289.931 75.083 313.215 59.665 315.572 63.225 295.431 76.561ZM315.289 109.67V109.67C312.993 110.535 310.878 110.401 308.945 109.268 307.011 108.134 305.558 106.277 304.585 103.694V103.694C303.505 100.826 303.166 98.239 303.57 95.934V95.934L307.714 94.373C306.958 96.988 307.087 99.64 308.099 102.328V102.328C308.634 103.747 309.387 104.745 310.358 105.324 311.329 105.904 312.397 105.974 313.56 105.536V105.536C314.257 105.273 314.802 104.787 315.196 104.077 315.596 103.365 315.838 102.67 315.923 101.991 316.003 101.315 316.089 100.309 316.183 98.973V98.973C316.234 98.187 316.274 97.632 316.302 97.309 316.329 96.986 316.395 96.453 316.499 95.71 316.6 94.961 316.71 94.394 316.828 94.009 316.954 93.627 317.139 93.138 317.383 92.542 317.634 91.943 317.928 91.47 318.266 91.122 318.61 90.772 319.028 90.409 319.518 90.032 320.009 89.656 320.577 89.345 321.225 89.102V89.102C323.446 88.265 325.508 88.411 327.412 89.542 329.314 90.666 330.747 92.509 331.713 95.073V95.073C332.599 97.425 332.939 99.581 332.733 101.542V101.542L328.775 103.033C329.212 100.893 329.017 98.725 328.19 96.528V96.528C327.653 95.103 326.915 94.106 325.975 93.536 325.034 92.96 324.046 92.867 323.013 93.256 321.981 93.645 321.304 94.358 320.984 95.395 320.662 96.426 320.452 97.905 320.354 99.832V99.832C320.297 101.097 320.215 102.094 320.106 102.824 320 103.561 319.794 104.438 319.488 105.455 319.174 106.469 318.668 107.324 317.971 108.02 317.272 108.71 316.377 109.26 315.289 109.67ZM79.908 184.771V184.771L78.399 184.834 81.59 193.383 82.772 192.442C85.506 190.279 87.78 188.5 89.595 187.106 91.401 185.708 92.529 184.85 92.978 184.534V184.534L93.662 184.055C92.313 184.225 87.728 184.463 79.908 184.771ZM74.582 184.991L67.256 185.299 65.644 180.982 95.755 180.25 97.75 185.595 74.476 204.641 72.854 200.296 78.601 195.756ZM117.405 217.848L103.111 228.072C100.115 230.215 97.281 231.065 94.61 230.621 91.938 230.177 89.62 228.582 87.655 225.835V225.835C85.724 223.136 84.962 220.464 85.368 217.82 85.779 215.171 87.428 212.814 90.316 210.749V210.749L104.878 200.334 107.408 203.871 92.879 214.263C90.91 215.671 89.812 217.175 89.584 218.777 89.358 220.37 89.802 221.945 90.916 223.502V223.502C93.422 227.007 96.623 227.366 100.517 224.581V224.581L114.875 214.311ZM137.113 234.216L134.822 237.032 129.027 232.319 113.357 251.586 109.976 248.836 125.645 229.569 119.881 224.881 122.171 222.064ZM161.064 249.512C162.08 252.906 161.659 256.624 159.801 260.666 157.944 264.708 155.386 267.454 152.128 268.906 148.879 270.355 145.436 270.243 141.799 268.572V268.572C138.192 266.914 135.869 264.375 134.828 260.955 133.784 257.527 134.191 253.791 136.048 249.749V249.749C137.895 245.732 140.449 243.001 143.71 241.558 146.977 240.118 150.414 240.227 154.021 241.884V241.884C157.706 243.578 160.054 246.12 161.064 249.512ZM145.483 245.557C143.318 246.654 141.553 248.686 140.19 251.653 138.827 254.619 138.449 257.296 139.057 259.683 139.665 262.07 141.144 263.803 143.494 264.883V264.883C145.929 266.002 148.216 266.018 150.355 264.93 152.503 263.839 154.271 261.783 155.66 258.762V258.762C157.034 255.772 157.43 253.103 156.847 250.757 156.264 248.411 154.758 246.68 152.33 245.564V245.564C149.925 244.458 147.643 244.456 145.483 245.557ZM177.416 278.576V278.576L168.554 277.273 172.694 249.111 181.466 250.4C185.65 251.015 188.887 252.815 191.177 255.799 193.473 258.785 194.327 262.281 193.738 266.287V266.287C193.123 270.471 191.355 273.726 188.432 276.052 185.515 278.385 181.843 279.227 177.416 278.576ZM180.846 254.069V254.069L176.544 253.437 173.479 274.287 177.91 274.939C181.114 275.41 183.698 274.765 185.664 273.004 187.63 271.243 188.845 268.787 189.308 265.636V265.636C189.733 262.741 189.179 260.2 187.646 258.012 186.119 255.825 183.853 254.511 180.846 254.069ZM222.252 274.629L222.641 278.239 206.309 280 203.257 251.699 219.381 249.96 219.77 253.57 207.97 254.842 208.912 263.578 219.374 262.45 219.763 266.06 209.301 267.188 210.243 275.924ZM243.449 241.602L244.688 245.014 237.667 247.565 246.147 270.907 242.05 272.396 233.57 249.054 226.586 251.591 225.347 248.178ZM264.082 247.975V247.975L264.502 249.427 272.049 244.296 270.854 243.372C268.104 241.23 265.836 239.443 264.051 238.011 262.264 236.589 261.163 235.697 260.749 235.335V235.335L260.121 234.785C260.607 236.055 261.927 240.452 264.082 247.975ZM265.561 253.096L267.599 260.141 263.788 262.731 255.929 233.655 260.647 230.448 284.674 248.535 280.838 251.142 275.063 246.637ZM277.556 215.905L297.827 235.889 294.802 238.957 274.531 218.973ZM313.147 208.057L316.346 210.181 307.491 223.517 283.777 207.772 286.183 204.149 306.698 217.77ZM320.769 179.097V179.097C323.113 179.986 324.642 181.514 325.356 183.684 326.07 185.853 325.928 188.252 324.931 190.882V190.882C323.824 193.805 322.34 196.012 320.48 197.504V197.504L316.246 195.899C318.588 194.412 320.277 192.3 321.314 189.564V189.564C321.863 188.116 321.962 186.841 321.611 185.741 321.258 184.647 320.49 183.876 319.309 183.429V183.429C318.594 183.158 317.847 183.159 317.068 183.432 316.286 183.712 315.633 184.083 315.109 184.546 314.592 185.011 313.85 185.722 312.883 186.678V186.678C312.306 187.242 311.9 187.639 311.663 187.869 311.429 188.093 311.021 188.458 310.438 188.962 309.858 189.46 309.389 189.816 309.032 190.029 308.68 190.244 308.211 190.496 307.625 190.786 307.032 191.073 306.487 191.237 305.989 191.275 305.493 191.308 304.929 191.304 304.297 191.263 303.668 191.217 303.023 191.069 302.364 190.819V190.819C300.101 189.961 298.625 188.463 297.935 186.324 297.241 184.177 297.388 181.801 298.376 179.195V179.195C299.283 176.802 300.476 174.921 301.954 173.555V173.555L305.983 175.082C304.209 176.422 302.898 178.211 302.05 180.449V180.449C301.5 181.898 301.393 183.158 301.726 184.23 302.057 185.309 302.747 186.047 303.798 186.445 304.855 186.846 305.852 186.758 306.789 186.181 307.734 185.601 308.893 184.607 310.265 183.201V183.201C311.163 182.275 311.9 181.57 312.475 181.084 313.053 180.592 313.802 180.061 314.721 179.492 315.647 178.926 316.608 178.615 317.603 178.558 318.607 178.498 319.663 178.678 320.769 179.097ZM67.864 143.329C67.864 141.527 69.325 140.066 71.126 140.066 72.928 140.066 74.388 141.527 74.388 143.329 74.388 145.13 72.928 146.591 71.126 146.591 69.325 146.591 67.864 145.13 67.864 143.329ZM319.209 143.329C319.209 141.527 320.669 140.066 322.471 140.066 324.273 140.066 325.733 141.527 325.733 143.329 325.733 145.13 324.272 146.591 322.471 146.591 320.669 146.591 319.209 145.13 319.209 143.329Z" fill="#000000" data-fill-palette-color="primary"></path></svg></g></svg></g></svg></g></svg></g><defs></defs></svg><rect width="395.52" height="280" fill="none" stroke="none" visibility="hidden"></rect></g></svg></g></svg>